<svg xmlns="http://www.w3.org/2000/svg" width="1040" height="960" viewBox="0 0 1040 960" font-family="'Helvetica Neue', Arial, 'Hiragino Sans', 'Yu Gothic', sans-serif">

  <!-- Background -->
  <rect width="1040" height="960" fill="#f8fafc" rx="0"/>

  <!-- Title Area -->
  <rect x="0" y="0" width="1040" height="72" fill="#16A177"/>
  <rect x="32" y="20" width="8" height="32" fill="white" rx="4"/>
  <text x="52" y="44" font-size="22" font-weight="700" fill="white">JOBLIUM</text>
  <text x="160" y="44" font-size="18" font-weight="400" fill="rgba(255,255,255,0.85)">画面一覧 / Screen List</text>
  <text x="960" y="44" font-size="12" fill="rgba(255,255,255,0.6)" text-anchor="end">v1.0.0  |  2026.03</text>

  <!-- Table container -->
  <rect x="32" y="96" width="976" height="832" fill="white" rx="12" filter="url(#shadow)"/>

  <!-- Shadow filter -->
  <defs>
    <filter id="shadow" x="-2%" y="-2%" width="104%" height="104%">
      <feDropShadow dx="0" dy="2" stdDeviation="6" flood-color="#00000018"/>
    </filter>
  </defs>

  <!-- Table header -->
  <rect x="32" y="96" width="976" height="44" fill="#16A177" rx="12"/>
  <rect x="32" y="118" width="976" height="22" fill="#16A177"/>

  <!-- Header text -->
  <text x="56"   y="124" font-size="12" font-weight="700" fill="white">画面ID</text>
  <text x="136"  y="124" font-size="12" font-weight="700" fill="white">画面名</text>
  <text x="316"  y="124" font-size="12" font-weight="700" fill="white">URL</text>
  <text x="576"  y="124" font-size="12" font-weight="700" fill="white">対象ロール</text>
  <text x="736"  y="124" font-size="12" font-weight="700" fill="white">認証</text>
  <text x="816"  y="124" font-size="12" font-weight="700" fill="white">備考</text>

  <!-- Col dividers in header -->
  <line x1="126"  y1="100" x2="126"  y2="140" stroke="rgba(255,255,255,0.3)" stroke-width="1"/>
  <line x1="306"  y1="100" x2="306"  y2="140" stroke="rgba(255,255,255,0.3)" stroke-width="1"/>
  <line x1="566"  y1="100" x2="566"  y2="140" stroke="rgba(255,255,255,0.3)" stroke-width="1"/>
  <line x1="726"  y1="100" x2="726"  y2="140" stroke="rgba(255,255,255,0.3)" stroke-width="1"/>
  <line x1="806"  y1="100" x2="806"  y2="140" stroke="rgba(255,255,255,0.3)" stroke-width="1"/>

  <!-- Rows (17 rows × 44px = 748px, starting y=140) -->

  <!-- Row 1 - S001 -->
  <rect x="32" y="140" width="976" height="44" fill="#f0faf7"/>
  <text x="56"  y="167" font-size="12" font-weight="600" fill="#16A177">S001</text>
  <text x="136" y="167" font-size="12" fill="#1e293b">ログイン画面</text>
  <text x="316" y="167" font-size="11" fill="#64748b" font-family="monospace, monospace">/login</text>
  <text x="576" y="167" font-size="12" fill="#1e293b">全ロール</text>
  <rect x="736" y="153" width="40" height="18" fill="#fef3c7" rx="9"/>
  <text x="756" y="166" font-size="10" fill="#92400e" font-weight="600" text-anchor="middle">不要</text>

  <!-- Row 2 - S002 -->
  <rect x="32" y="184" width="976" height="44" fill="white"/>
  <text x="56"  y="211" font-size="12" font-weight="600" fill="#16A177">S002</text>
  <text x="136" y="211" font-size="12" fill="#1e293b">トップ画面</text>
  <text x="316" y="211" font-size="11" fill="#64748b" font-family="monospace, monospace">/top</text>
  <text x="576" y="211" font-size="12" fill="#1e293b">全ロール</text>
  <rect x="736" y="197" width="40" height="18" fill="#fef3c7" rx="9"/>
  <text x="756" y="210" font-size="10" fill="#92400e" font-weight="600" text-anchor="middle">不要</text>
  <text x="816" y="211" font-size="10" fill="#64748b">検索欄、ブログ、おすすめ事業所</text>

  <!-- Row 3 - S003 -->
  <rect x="32" y="228" width="976" height="44" fill="#f0faf7"/>
  <text x="56"  y="255" font-size="12" font-weight="600" fill="#16A177">S003</text>
  <text x="136" y="255" font-size="12" fill="#1e293b">ダッシュボード</text>
  <text x="316" y="255" font-size="11" fill="#64748b" font-family="monospace, monospace">/dashboard</text>
  <text x="576" y="255" font-size="12" fill="#1e293b">全ロール</text>
  <rect x="736" y="241" width="40" height="18" fill="#dcfce7" rx="9"/>
  <text x="756" y="254" font-size="10" fill="#166534" font-weight="600" text-anchor="middle">要</text>

  <!-- Row 4 - S004a -->
  <rect x="32" y="272" width="976" height="44" fill="white"/>
  <text x="56"  y="299" font-size="12" font-weight="600" fill="#16A177">S004</text>
  <text x="136" y="299" font-size="12" fill="#1e293b">解約・プラン移行</text>
  <text x="316" y="299" font-size="11" fill="#64748b" font-family="monospace, monospace">/plan/edit</text>
  <text x="576" y="299" font-size="12" fill="#1e293b">事業者</text>
  <rect x="736" y="285" width="40" height="18" fill="#dcfce7" rx="9"/>
  <text x="756" y="298" font-size="10" fill="#166534" font-weight="600" text-anchor="middle">要</text>

  <!-- Row 5 - S004b -->
  <rect x="32" y="316" width="976" height="44" fill="#f0faf7"/>
  <text x="56"  y="343" font-size="12" font-weight="600" fill="#16A177">S004</text>
  <text x="136" y="343" font-size="12" fill="#1e293b">プラン登録</text>
  <text x="316" y="343" font-size="11" fill="#64748b" font-family="monospace, monospace">/plan/register</text>
  <text x="576" y="343" font-size="12" fill="#1e293b">事業者</text>
  <rect x="736" y="329" width="40" height="18" fill="#dcfce7" rx="9"/>
  <text x="756" y="342" font-size="10" fill="#166534" font-weight="600" text-anchor="middle">要</text>

  <!-- Row 6 - S005 -->
  <rect x="32" y="360" width="976" height="44" fill="white"/>
  <text x="56"  y="387" font-size="12" font-weight="600" fill="#16A177">S005</text>
  <text x="136" y="387" font-size="12" fill="#1e293b">利用者詳細</text>
  <text x="316" y="387" font-size="11" fill="#64748b" font-family="monospace, monospace">/users/{id}</text>
  <text x="576" y="387" font-size="12" fill="#1e293b">管理者</text>
  <rect x="736" y="373" width="40" height="18" fill="#dcfce7" rx="9"/>
  <text x="756" y="386" font-size="10" fill="#166534" font-weight="600" text-anchor="middle">要</text>

  <!-- Row 7 - S006 -->
  <rect x="32" y="404" width="976" height="44" fill="#f0faf7"/>
  <text x="56"  y="431" font-size="12" font-weight="600" fill="#16A177">S006</text>
  <text x="136" y="431" font-size="12" fill="#1e293b">利用者登録・編集</text>
  <text x="316" y="431" font-size="11" fill="#64748b" font-family="monospace, monospace">/users/create, /users/{id}/edit</text>
  <text x="576" y="431" font-size="12" fill="#1e293b">利用者 / 管理者</text>
  <rect x="736" y="417" width="40" height="18" fill="#dcfce7" rx="9"/>
  <text x="756" y="430" font-size="10" fill="#166534" font-weight="600" text-anchor="middle">要</text>

  <!-- Row 8 - S007 -->
  <rect x="32" y="448" width="976" height="44" fill="white"/>
  <text x="56"  y="475" font-size="12" font-weight="600" fill="#16A177">S007</text>
  <text x="136" y="475" font-size="12" fill="#1e293b">プロフィール（利用者）</text>
  <text x="316" y="475" font-size="11" fill="#64748b" font-family="monospace, monospace">/profile</text>
  <text x="576" y="475" font-size="12" fill="#1e293b">利用者</text>
  <rect x="736" y="461" width="40" height="18" fill="#dcfce7" rx="9"/>
  <text x="756" y="474" font-size="10" fill="#166534" font-weight="600" text-anchor="middle">要</text>

  <!-- Row 9 - S008 -->
  <rect x="32" y="492" width="976" height="44" fill="#f0faf7"/>
  <text x="56"  y="519" font-size="12" font-weight="600" fill="#16A177">S008</text>
  <text x="136" y="519" font-size="12" fill="#1e293b">履歴書閲覧</text>
  <text x="316" y="519" font-size="11" fill="#64748b" font-family="monospace, monospace">/profile/resume</text>
  <text x="576" y="519" font-size="12" fill="#1e293b">事業者 / 管理者</text>
  <rect x="736" y="505" width="40" height="18" fill="#dcfce7" rx="9"/>
  <text x="756" y="518" font-size="10" fill="#166534" font-weight="600" text-anchor="middle">要</text>

  <!-- Row 10 - S009 -->
  <rect x="32" y="536" width="976" height="44" fill="white"/>
  <text x="56"  y="563" font-size="12" font-weight="600" fill="#16A177">S009</text>
  <text x="136" y="563" font-size="12" fill="#1e293b">履歴書編集</text>
  <text x="316" y="563" font-size="11" fill="#64748b" font-family="monospace, monospace">/profile/resume</text>
  <text x="576" y="563" font-size="12" fill="#1e293b">利用者 / 管理者</text>
  <rect x="736" y="549" width="40" height="18" fill="#dcfce7" rx="9"/>
  <text x="756" y="562" font-size="10" fill="#166534" font-weight="600" text-anchor="middle">要</text>

  <!-- Row 11 - S010 -->
  <rect x="32" y="580" width="976" height="44" fill="#f0faf7"/>
  <text x="56"  y="607" font-size="12" font-weight="600" fill="#16A177">S010</text>
  <text x="136" y="607" font-size="12" fill="#1e293b">事業所一覧</text>
  <text x="316" y="607" font-size="11" fill="#64748b" font-family="monospace, monospace">/offices</text>
  <text x="576" y="607" font-size="12" fill="#1e293b">全ロール</text>
  <rect x="736" y="593" width="40" height="18" fill="#fef3c7" rx="9"/>
  <text x="756" y="606" font-size="10" fill="#92400e" font-weight="600" text-anchor="middle">不要</text>
  <text x="816" y="607" font-size="10" fill="#64748b">検索画面</text>

  <!-- Row 12 - S011 -->
  <rect x="32" y="624" width="976" height="44" fill="white"/>
  <text x="56"  y="651" font-size="12" font-weight="600" fill="#16A177">S011</text>
  <text x="136" y="651" font-size="12" fill="#1e293b">事業所詳細</text>
  <text x="316" y="651" font-size="11" fill="#64748b" font-family="monospace, monospace">/offices/{id}</text>
  <text x="576" y="651" font-size="12" fill="#1e293b">全ロール</text>
  <rect x="736" y="637" width="40" height="18" fill="#dcfce7" rx="9"/>
  <text x="756" y="650" font-size="10" fill="#166534" font-weight="600" text-anchor="middle">要</text>

  <!-- Row 13 - S012 -->
  <rect x="32" y="668" width="976" height="44" fill="#f0faf7"/>
  <text x="56"  y="695" font-size="12" font-weight="600" fill="#16A177">S012</text>
  <text x="136" y="695" font-size="12" fill="#1e293b">事業所登録・編集</text>
  <text x="316" y="695" font-size="11" fill="#64748b" font-family="monospace, monospace">/offices/create, /{id}/edit</text>
  <text x="576" y="695" font-size="12" fill="#1e293b">事業者 / 管理者</text>
  <rect x="736" y="681" width="40" height="18" fill="#dcfce7" rx="9"/>
  <text x="756" y="694" font-size="10" fill="#166534" font-weight="600" text-anchor="middle">要</text>

  <!-- Row 14 - S013 -->
  <rect x="32" y="712" width="976" height="44" fill="white"/>
  <text x="56"  y="739" font-size="12" font-weight="600" fill="#16A177">S013</text>
  <text x="136" y="739" font-size="12" fill="#1e293b">メッセージ一覧</text>
  <text x="316" y="739" font-size="11" fill="#64748b" font-family="monospace, monospace">/messages</text>
  <text x="576" y="739" font-size="12" fill="#1e293b">全ロール</text>
  <rect x="736" y="725" width="40" height="18" fill="#dcfce7" rx="9"/>
  <text x="756" y="738" font-size="10" fill="#166534" font-weight="600" text-anchor="middle">要</text>

  <!-- Row 15 - S014 -->
  <rect x="32" y="756" width="976" height="44" fill="#f0faf7"/>
  <text x="56"  y="783" font-size="12" font-weight="600" fill="#16A177">S014</text>
  <text x="136" y="783" font-size="12" fill="#1e293b">メッセージ詳細・送信</text>
  <text x="316" y="783" font-size="11" fill="#64748b" font-family="monospace, monospace">/messages/{id}</text>
  <text x="576" y="783" font-size="12" fill="#1e293b">全ロール</text>
  <rect x="736" y="769" width="40" height="18" fill="#dcfce7" rx="9"/>
  <text x="756" y="782" font-size="10" fill="#166534" font-weight="600" text-anchor="middle">要</text>

  <!-- Row 16 - S015 -->
  <rect x="32" y="800" width="976" height="44" fill="white"/>
  <text x="56"  y="827" font-size="12" font-weight="600" fill="#16A177">S015</text>
  <text x="136" y="827" font-size="12" fill="#1e293b">マスタ管理</text>
  <text x="316" y="827" font-size="11" fill="#64748b" font-family="monospace, monospace">/admin/master</text>
  <text x="576" y="827" font-size="12" fill="#1e293b">管理者</text>
  <rect x="736" y="813" width="40" height="18" fill="#dcfce7" rx="9"/>
  <text x="756" y="826" font-size="10" fill="#166534" font-weight="600" text-anchor="middle">要</text>
  <text x="816" y="827" font-size="10" fill="#64748b">マスタ選択画面</text>

  <!-- Row 17 - S016 -->
  <rect x="32" y="844" width="976" height="44" fill="#f0faf7"/>
  <text x="56"  y="871" font-size="12" font-weight="600" fill="#16A177">S016</text>
  <text x="136" y="871" font-size="12" fill="#1e293b">ユーザー管理（管理者）</text>
  <text x="316" y="871" font-size="11" fill="#64748b" font-family="monospace, monospace">/admin/users</text>
  <text x="576" y="871" font-size="12" fill="#1e293b">管理者</text>
  <rect x="736" y="857" width="40" height="18" fill="#dcfce7" rx="9"/>
  <text x="756" y="870" font-size="10" fill="#166534" font-weight="600" text-anchor="middle">要</text>
  <text x="816" y="871" font-size="10" fill="#64748b">ユーザー検索画面</text>

  <!-- Row 18 - S017 -->
  <rect x="32" y="888" width="976" height="40" fill="white" rx="0"/>
  <rect x="32" y="908" width="976" height="20" fill="white" rx="0"/>
  <rect x="32" y="888" width="976" height="40" fill="white"/>
  <!-- bottom round corners -->
  <rect x="32" y="908" width="976" height="20" fill="white"/>
  <text x="56"  y="913" font-size="12" font-weight="600" fill="#16A177">S017</text>
  <text x="136" y="913" font-size="12" fill="#1e293b">事業所管理（管理者）</text>
  <text x="316" y="913" font-size="11" fill="#64748b" font-family="monospace, monospace">/admin/offices</text>
  <text x="576" y="913" font-size="12" fill="#1e293b">管理者</text>
  <rect x="736" y="899" width="40" height="18" fill="#dcfce7" rx="9"/>
  <text x="756" y="912" font-size="10" fill="#166534" font-weight="600" text-anchor="middle">要</text>
  <text x="816" y="913" font-size="10" fill="#64748b">事業所検索画面</text>

  <!-- Row dividers -->
  <line x1="44" y1="184" x2="996" y2="184" stroke="#e2e8f0" stroke-width="1"/>
  <line x1="44" y1="228" x2="996" y2="228" stroke="#e2e8f0" stroke-width="1"/>
  <line x1="44" y1="272" x2="996" y2="272" stroke="#e2e8f0" stroke-width="1"/>
  <line x1="44" y1="316" x2="996" y2="316" stroke="#e2e8f0" stroke-width="1"/>
  <line x1="44" y1="360" x2="996" y2="360" stroke="#e2e8f0" stroke-width="1"/>
  <line x1="44" y1="404" x2="996" y2="404" stroke="#e2e8f0" stroke-width="1"/>
  <line x1="44" y1="448" x2="996" y2="448" stroke="#e2e8f0" stroke-width="1"/>
  <line x1="44" y1="492" x2="996" y2="492" stroke="#e2e8f0" stroke-width="1"/>
  <line x1="44" y1="536" x2="996" y2="536" stroke="#e2e8f0" stroke-width="1"/>
  <line x1="44" y1="580" x2="996" y2="580" stroke="#e2e8f0" stroke-width="1"/>
  <line x1="44" y1="624" x2="996" y2="624" stroke="#e2e8f0" stroke-width="1"/>
  <line x1="44" y1="668" x2="996" y2="668" stroke="#e2e8f0" stroke-width="1"/>
  <line x1="44" y1="712" x2="996" y2="712" stroke="#e2e8f0" stroke-width="1"/>
  <line x1="44" y1="756" x2="996" y2="756" stroke="#e2e8f0" stroke-width="1"/>
  <line x1="44" y1="800" x2="996" y2="800" stroke="#e2e8f0" stroke-width="1"/>
  <line x1="44" y1="844" x2="996" y2="844" stroke="#e2e8f0" stroke-width="1"/>
  <line x1="44" y1="888" x2="996" y2="888" stroke="#e2e8f0" stroke-width="1"/>

  <!-- Col dividers -->
  <line x1="126"  y1="140" x2="126"  y2="928" stroke="#e2e8f0" stroke-width="1"/>
  <line x1="306"  y1="140" x2="306"  y2="928" stroke="#e2e8f0" stroke-width="1"/>
  <line x1="566"  y1="140" x2="566"  y2="928" stroke="#e2e8f0" stroke-width="1"/>
  <line x1="726"  y1="140" x2="726"  y2="928" stroke="#e2e8f0" stroke-width="1"/>
  <line x1="806"  y1="140" x2="806"  y2="928" stroke="#e2e8f0" stroke-width="1"/>

  <!-- Table border -->
  <rect x="32" y="96" width="976" height="832" fill="none" stroke="#e2e8f0" stroke-width="1" rx="12"/>

  <!-- Footer -->
  <text x="520" y="952" font-size="11" fill="#94a3b8" text-anchor="middle">JOBLIUM — 就労支援施設 雇用支援システム  |  画面数: 17  |  基本設計書 v1.0.0</text>

</svg>
